<?xml version="1.0" encoding="UTF-8" standalone="no"?>
<svg
   version="1.1"
   x="0px"
   y="0px"
   viewBox="-3.2 -6.4 247.11017 195.59499"
   xml:space="preserve"
   id="svg11"
   sodipodi:docname="radio-logo.svg"
   width="247.11018"
   height="195.59499"
   inkscape:version="1.4.2 (ebf0e94, 2025-05-08)"
   xmlns:inkscape="http://www.inkscape.org/namespaces/inkscape"
   xmlns:sodipodi="http://sodipodi.sourceforge.net/DTD/sodipodi-0.dtd"
   xmlns="http://www.w3.org/2000/svg"
   xmlns:svg="http://www.w3.org/2000/svg"><defs
     id="defs11" /><sodipodi:namedview
     id="namedview11"
     pagecolor="#ffffff"
     bordercolor="#000000"
     borderopacity="0.25"
     inkscape:showpageshadow="2"
     inkscape:pageopacity="0.0"
     inkscape:pagecheckerboard="0"
     inkscape:deskcolor="#d1d1d1"
     inkscape:zoom="1.004599"
     inkscape:cx="-21.899285"
     inkscape:cy="27.374106"
     inkscape:window-width="1366"
     inkscape:window-height="700"
     inkscape:window-x="0"
     inkscape:window-y="0"
     inkscape:window-maximized="1"
     inkscape:current-layer="svg11" /><g
     id="g10"
     transform="matrix(4.2619901,0,0,4.6239951,-16.02859,-56.570347)"
     style="fill:#ffcc00;fill-opacity:1"><path
       d="M 60.24,10.85 H 3.76 c -0.41,0 -0.75,0.34 -0.75,0.75 v 40.8 c 0,0.41 0.34,0.75 0.75,0.75 h 56.48 c 0.41,0 0.75,-0.34 0.75,-0.75 V 11.6 c 0,-0.41 -0.34,-0.75 -0.75,-0.75 z m -0.75,40.8 H 4.51 v -39.3 h 54.98 z"
       id="path1"
       style="fill:#ffcc00;fill-opacity:1" /><path
       d="m 7.66,49.37 h 37.72 c 0.42,0 0.75,-0.33 0.75,-0.75 V 15.38 c 0,-0.42 -0.33,-0.75 -0.75,-0.75 H 7.66 c -0.41,0 -0.75,0.33 -0.75,0.75 v 33.24 c 0,0.42 0.34,0.75 0.75,0.75 z"
       id="path2"
       style="fill:#ffcc00;fill-opacity:1" /><path
       d="m 48.05,48.99 h 9.08 c 0.41,0 0.75,-0.34 0.75,-0.75 V 15.76 c 0,-0.41 -0.34,-0.75 -0.75,-0.75 h -9.08 c -0.42,0 -0.75,0.34 -0.75,0.75 v 32.48 c 0,0.41 0.33,0.75 0.75,0.75 z M 48.8,16.51 h 7.58 V 47.49 H 48.8 Z"
       id="path3"
       style="fill:#ffcc00;fill-opacity:1" /><path
       d="m 52.55,23.67 c 1.75,0 3.17,-1.43 3.17,-3.18 0,-1.75 -1.42,-3.18 -3.17,-3.18 -1.76,0 -3.18,1.43 -3.18,3.18 0,1.75 1.42,3.18 3.18,3.18 z"
       id="path4"
       style="fill:#ffcc00;fill-opacity:1" /><path
       d="m 52.55,30.83 c 1.75,0 3.17,-1.42 3.17,-3.18 0,-1.75 -1.42,-3.18 -3.17,-3.18 -1.76,0 -3.18,1.43 -3.18,3.18 0,1.76 1.42,3.18 3.18,3.18 z"
       id="path5"
       style="fill:#ffcc00;fill-opacity:1" /><path
       d="m 54.997,32.273 h -4.902 c -0.414,0 -0.75,0.336 -0.75,0.75 0,0.414 0.336,0.75 0.75,0.75 h 4.902 c 0.414,0 0.75,-0.336 0.75,-0.75 0,-0.414 -0.336,-0.75 -0.75,-0.75 z"
       id="path6"
       style="fill:#ffcc00;fill-opacity:1" /><path
       d="m 54.997,35.342 h -4.902 c -0.414,0 -0.75,0.336 -0.75,0.75 0,0.414 0.336,0.75 0.75,0.75 h 4.902 c 0.414,0 0.75,-0.336 0.75,-0.75 0,-0.414 -0.336,-0.75 -0.75,-0.75 z"
       id="path7"
       style="fill:#ffcc00;fill-opacity:1" /><path
       d="m 54.997,38.411 h -4.902 c -0.414,0 -0.75,0.336 -0.75,0.75 0,0.414 0.336,0.75 0.75,0.75 h 4.902 c 0.414,0 0.75,-0.336 0.75,-0.75 0,-0.414 -0.336,-0.75 -0.75,-0.75 z"
       id="path8"
       style="fill:#ffcc00;fill-opacity:1" /><path
       d="m 54.997,41.48 h -4.902 c -0.414,0 -0.75,0.336 -0.75,0.75 0,0.414 0.336,0.75 0.75,0.75 h 4.902 c 0.414,0 0.75,-0.336 0.75,-0.75 0,-0.414 -0.336,-0.75 -0.75,-0.75 z"
       id="path9"
       style="fill:#ffcc00;fill-opacity:1" /><path
       d="m 54.997,44.549 h -4.902 c -0.414,0 -0.75,0.336 -0.75,0.75 0,0.414 0.336,0.75 0.75,0.75 h 4.902 c 0.414,0 0.75,-0.336 0.75,-0.75 0,-0.414 -0.336,-0.75 -0.75,-0.75 z"
       id="path10"
       style="fill:#ffcc00;fill-opacity:1" /></g></svg>
